# xmcd
#
# Track frame offsets: 
#        150
#        17858
#        44535
#        60442
#        77339
#        96108
#        113126
#        131483
#        149995
#        167590
#
# Disc length: 2514 seconds
#
# Revision: 0
# Processed by: cddbd v1.5.2PL0 Copyright (c) Steve Scherf et al.
# Submitted via: ExactAudioCopyFreeDBPlugin 1.0
#
DISCID=8309d00a
DTITLE=Bonnie Bishop - Ain't Who I Was
DYEAR=2016
DGENRE=Rock
TTITLE0=Mercy
TTITLE1=Be with You
TTITLE2=Looking for You
TTITLE3=Done Died
TTITLE4=Poor Man's Melody
TTITLE5=Broken
TTITLE6=Too Late
TTITLE7=Ain't Who I Was
TTITLE8=Not Cause I Wanted To
TTITLE9=You Will Be Loved
EXTD=
EXTT0=
EXTT1=
EXTT2=
EXTT3=
EXTT4=
EXTT5=
EXTT6=
EXTT7=
EXTT8=
EXTT9=
PLAYORDER=
